<?xml version="1.0" encoding="UTF-8" standalone="no"?>
<svg
   xmlns:dc="http://purl.org/dc/elements/1.1/"
   xmlns:cc="http://creativecommons.org/ns#"
   xmlns:rdf="http://www.w3.org/1999/02/22-rdf-syntax-ns#"
   xmlns:svg="http://www.w3.org/2000/svg"
   xmlns="http://www.w3.org/2000/svg"
   xmlns:sodipodi="http://sodipodi.sourceforge.net/DTD/sodipodi-0.dtd"
   xmlns:inkscape="http://www.inkscape.org/namespaces/inkscape"
   viewBox="0 0 22 22"
   version="1.1"
   id="svg12"
   sodipodi:docname="fullscreen.svg"
   inkscape:version="0.92.1 r15371">
  <metadata
     id="metadata18">
    <rdf:RDF>
      <cc:Work
         rdf:about="">
        <dc:format>image/svg+xml</dc:format>
        <dc:type
           rdf:resource="http://purl.org/dc/dcmitype/StillImage" />
        <dc:title></dc:title>
      </cc:Work>
    </rdf:RDF>
  </metadata>
  <defs
     id="defs16" />
  <sodipodi:namedview
     pagecolor="#ffffff"
     bordercolor="#666666"
     borderopacity="1"
     objecttolerance="10"
     gridtolerance="10"
     guidetolerance="10"
     inkscape:pageopacity="0"
     inkscape:pageshadow="2"
     inkscape:window-width="1920"
     inkscape:window-height="1001"
     id="namedview14"
     showgrid="false"
     inkscape:zoom="10.727273"
     inkscape:cx="-0.37288136"
     inkscape:cy="11"
     inkscape:window-x="-9"
     inkscape:window-y="-9"
     inkscape:window-maximized="1"
     inkscape:current-layer="svg12" />
  <path
     style="fill:#000000;stroke-width:0.58302999;fill-opacity:1"
     inkscape:connector-curvature="0"
     id="path2"
     d="m 19.264731,14.152473 c 0,-0.50607 -0.387715,-0.915357 -0.869298,-0.915357 -0.477501,0.0012 -0.869881,0.409287 -0.869881,0.915357 v 1.894847 l -3.50984,-3.50984 c -0.339324,-0.339907 -0.888538,-0.339907 -1.227861,0 -0.339324,0.339323 -0.339324,0.890287 0,1.22961 l 3.491766,3.490601 h -1.886102 c -0.513649,0.0012 -0.927601,0.390047 -0.927601,0.869297 0,0.480417 0.413952,0.868715 0.927601,0.868715 h 3.941866 c 0.513649,0 0.927018,-0.387715 0.928767,-0.868715 -0.0017,-0.01283 -0.0035,-0.02274 -0.0052,-0.03556 0.0017,-0.01632 0.0052,-0.03382 0.0052,-0.05072 v -3.887644 h -5.9e-5" />
  <path
     style="fill:#000000;stroke-width:0.58302999;fill-opacity:1"
     inkscape:connector-curvature="0"
     id="path4"
     d="m 7.97727,12.536897 -3.5040103,3.50984 V 14.15189 c 0,-0.50607 -0.3917962,-0.914191 -0.8704638,-0.915357 -0.4804167,0 -0.8687147,0.409287 -0.8687147,0.915357 l -0.00117,3.888227 c 0,0.01691 0.00466,0.0344 5.83e-4,0.05072 -0.00117,0.01224 -0.0035,0.02215 -0.00466,0.03556 0.00117,0.481 0.4151174,0.868715 0.9281838,0.868715 h 3.9424489 c 0.5124833,0 0.9270177,-0.388298 0.9270177,-0.868715 0,-0.47925 -0.4145344,-0.868131 -0.9270177,-0.869297 H 5.7133645 l 3.4917667,-3.490601 c 0.3381574,-0.339323 0.3381574,-0.890287 0,-1.22961 -0.3399065,-0.34049 -0.8897038,-0.34049 -1.2301933,-5.9e-5" />
  <path
     style="fill:#000000;stroke-width:0.58302999;fill-opacity:1"
     inkscape:connector-curvature="0"
     id="path6"
     d="m 14.016878,9.4532511 3.50984,-3.5098406 V 7.838258 c 0,0.5043209 0.39238,0.9124419 0.869881,0.914191 0.481583,0 0.869298,-0.4098701 0.869298,-0.914191 V 3.9488648 c 0,-0.016908 -0.0035,-0.034399 -0.0052,-0.049558 0.0017,-0.012244 0.0035,-0.023904 0.0052,-0.036148 C 19.264197,3.381576 18.85078,2.9938611 18.337713,2.9938611 h -3.941866 c -0.513649,0 -0.9276,0.3877149 -0.9276,0.8692977 0,0.4786676 0.413951,0.8687147 0.9276,0.8698808 h 1.886102 l -3.491766,3.4906006 c -0.339324,0.3387404 -0.339324,0.8885377 0,1.2272781 0.339323,0.3416556 0.888537,0.3416556 1.227861,5.83e-5" />
  <path
     style="fill:#000000;stroke-width:0.58302999;fill-opacity:1"
     inkscape:connector-curvature="0"
     id="path8"
     d="M 5.7156966,4.7347893 H 7.6012157 C 8.113699,4.7336232 8.5282334,4.3435761 8.5282334,3.8649085 8.5282334,3.3833257 8.113699,2.9956108 7.6012157,2.9956108 H 3.6593498 c -0.5130664,0 -0.9270177,0.3877149 -0.9281837,0.8692977 0.00117,0.012244 0.0035,0.023904 0.00466,0.036148 -0.00117,0.015159 -5.83e-4,0.032067 -5.83e-4,0.049558 l 0.00117,3.8899762 c 0,0.5043209 0.388298,0.914191 0.8687147,0.914191 0.4786679,-0.00175 0.870464,-0.4098707 0.870464,-0.9141916 V 5.9457426 l 3.5040103,3.5098406 c 0.3404895,0.3410725 0.8902868,0.3410725 1.2301933,0 0.3381574,-0.3387405 0.3381574,-0.8885377 0,-1.2272782 L 5.7180287,4.7371214" />
</svg>
